<?xml version="1.0" standalone="no"?>
<!DOCTYPE svg PUBLIC "-//W3C//DTD SVG 20010904//EN"
 "http://www.w3.org/TR/2001/REC-SVG-20010904/DTD/svg10.dtd">
<svg version="1.0" xmlns="http://www.w3.org/2000/svg"
 width="256.000000pt" height="256.000000pt" viewBox="0 0 256.000000 256.000000"
 preserveAspectRatio="xMidYMid meet">
<metadata>
Created by potrace 1.11, written by Peter Selinger 2001-2013
</metadata>
<g transform="translate(0.000000,256.000000) scale(0.100000,-0.100000)"
fill="#000000" stroke="none">
<path d="M0 2440 c0 -5 11 -10 25 -10 13 0 39 -9 57 -20 34 -20 91 -29 72 -10
-11 11 -120 50 -141 50 -7 0 -13 -4 -13 -10z"/>
<path d="M832 2099 c-9 -4 -39 -7 -65 -7 -26 -1 -53 -5 -60 -9 -7 -4 -79 -10
-162 -13 -128 -4 -157 -8 -195 -27 -77 -38 -182 -70 -267 -84 l-83 -13 0 -973
0 -973 136 0 c122 0 135 2 124 15 -23 28 2 40 52 25 110 -31 140 -21 197 69
31 48 32 48 75 44 43 -5 44 -5 51 27 5 23 3 35 -6 41 -11 7 -11 9 2 9 17 0 20
-23 22 -178 l0 -53 99 4 c54 3 104 10 112 16 9 7 17 8 20 2 3 -5 0 -12 -6 -14
-7 -3 260 -6 594 -6 l607 -1 48 53 c56 61 306 309 353 350 18 16 43 33 56 39
22 11 24 16 24 92 l-1 81 -32 -57 c-39 -67 -139 -178 -161 -178 -8 0 -21 -11
-28 -24 -20 -37 -199 -188 -215 -182 -8 4 -17 6 -19 6 -10 0 -2 54 13 83 36
69 15 243 -31 260 -9 4 -12 14 -9 25 2 11 0 23 -6 26 -43 27 17 51 324 131
l160 41 3 474 c2 383 0 471 -10 458 -13 -17 -81 -28 -94 -15 -14 13 -59 7 -92
-13 -19 -12 -42 -18 -52 -15 -13 4 -22 -1 -30 -15 -6 -11 -15 -18 -19 -15 -12
7 -73 -64 -65 -76 4 -6 11 -6 20 2 19 16 19 -10 -1 -58 -15 -35 -16 -35 -35
-18 -15 14 -17 21 -7 36 14 23 3 36 -18 19 -12 -10 -15 -9 -15 5 0 17 -1 17
-22 -1 l-21 -19 6 33 c4 17 3 32 -1 32 -14 0 -32 -23 -32 -41 0 -17 -39 -53
-48 -45 -2 2 6 22 17 45 l21 41 -22 -9 c-49 -19 -74 -37 -70 -49 5 -16 -36
-62 -56 -62 -11 0 -13 8 -8 31 3 17 6 37 6 43 0 15 22 38 84 90 25 21 46 42
46 46 0 4 -11 12 -25 18 -21 10 -32 7 -82 -27 -32 -21 -85 -55 -118 -76 -33
-21 -73 -47 -88 -57 -16 -11 -43 -21 -60 -22 -45 -4 -47 -5 -47 -16 0 -5 7
-10 15 -10 13 0 13 -3 -1 -26 -12 -17 -20 -22 -27 -15 -6 6 -19 11 -29 11 -11
0 -15 5 -12 15 8 19 -5 19 -30 0 -11 -8 -28 -15 -38 -15 -10 0 -18 -4 -18 -8
0 -4 -15 -13 -32 -20 -30 -10 -33 -15 -35 -56 -2 -54 -8 -66 -34 -66 -24 0
-26 45 -3 79 12 16 13 26 5 34 -7 7 -12 6 -17 -6 -3 -9 -14 -17 -23 -17 -9 0
-25 -6 -36 -13 -27 -19 -65 -27 -65 -15 0 5 -10 6 -22 2 -21 -6 -21 -4 6 25
17 17 36 31 43 31 8 0 16 7 19 15 5 12 10 13 20 4 7 -6 22 -8 34 -4 17 6 19 9
9 22 -11 13 -8 14 22 11 27 -2 34 0 33 14 -2 18 30 30 166 63 36 9 73 20 83
26 20 11 41 3 31 -13 -4 -7 2 -8 17 -3 13 4 27 13 31 19 4 6 27 16 50 22 37 9
43 14 41 35 -2 33 -13 80 -23 104 -5 11 -13 34 -18 50 -5 19 -16 31 -30 33
-29 4 -29 -20 -1 -58 13 -17 20 -37 16 -49 -3 -12 -1 -24 4 -27 10 -6 -27 -64
-40 -64 -10 0 -31 85 -31 129 0 54 -7 67 -46 92 l-34 21 -30 -22 c-36 -26 -69
-71 -63 -87 3 -7 -3 -13 -14 -14 -17 0 -17 -1 0 -7 14 -6 10 -15 -32 -55 -41
-40 -54 -47 -75 -41 -14 3 -31 13 -38 21 -7 8 -23 19 -36 24 -20 8 -22 12 -12
24 10 12 10 15 -1 15 -10 0 -10 3 -1 12 7 7 12 22 12 34 0 14 8 25 20 29 20 6
28 25 11 25 -5 0 -11 7 -15 15 -5 13 4 15 48 14 59 -2 76 4 76 29 0 46 -100
52 -145 8 -12 -11 -31 -26 -41 -33 -11 -6 -18 -16 -17 -22 2 -5 -6 -31 -17
-56 -11 -25 -17 -52 -14 -60 4 -8 -1 -17 -10 -21 -9 -3 -16 -15 -16 -25 0 -27
-30 -90 -59 -121 l-24 -28 -34 35 c-26 27 -32 40 -27 60 5 20 3 25 -14 25 -30
0 -37 41 -10 61 16 13 18 18 7 21 -8 3 -23 1 -34 -5 -20 -10 -20 -10 -1 11 10
12 23 19 29 15 6 -3 7 -1 3 5 -4 7 -1 12 8 12 9 0 16 5 16 10 0 7 -6 7 -17 1
-36 -19 -66 -17 -69 4 -3 21 34 95 48 95 4 0 8 8 8 18 0 9 15 27 33 40 l32 24
-31 -7 c-29 -6 -32 -4 -36 24 -3 17 -1 31 4 31 4 0 8 6 8 12 0 7 -10 2 -22
-10 -18 -18 -20 -24 -10 -31 10 -6 8 -10 -8 -14 -13 -3 -19 -10 -15 -17 4 -7
-1 -14 -13 -17 -13 -3 -18 -11 -15 -19 3 -9 -2 -14 -13 -14 -18 -1 -18 -1 -1
-14 16 -12 16 -17 5 -35 -15 -24 -38 -28 -38 -6 0 10 -6 8 -24 -8 -15 -15 -26
-38 -30 -69 -3 -25 -17 -66 -30 -90 -14 -23 -30 -63 -37 -88 -12 -45 -12 -45
-21 -17 -9 24 -13 28 -33 27 -3 -1 -12 6 -20 14 -12 11 -13 25 -6 63 10 52 13
47 -68 135 -19 20 -42 52 -51 70 -12 26 -22 34 -48 36 -17 2 -32 5 -32 8 0 13
90 93 135 120 84 51 200 68 265 39 30 -14 44 -15 78 -6 45 12 65 31 34 31 -11
0 -22 6 -25 14 -4 10 -26 13 -81 12 -42 0 -84 -3 -94 -7z m1488 -563 c0 -8 -4
-17 -9 -20 -10 -7 -23 19 -14 28 11 11 23 6 23 -8z m-430 -10 c0 -18 -17 -29
-30 -21 -8 5 -7 11 1 21 15 18 29 18 29 0z m-80 -95 c0 -6 -4 -13 -10 -16 -5
-3 -10 1 -10 9 0 9 5 16 10 16 6 0 10 -4 10 -9z m70 4 c0 -2 -10 -10 -22 -16
-21 -11 -22 -11 -9 4 13 16 31 23 31 12z m-110 -35 l25 -20 -27 0 c-15 0 -29
4 -33 10 -3 5 -13 6 -23 3 -15 -6 -15 -5 -3 10 17 22 30 21 61 -3z m-250 -4
c0 -3 -4 -8 -10 -11 -5 -3 -10 -1 -10 4 0 6 5 11 10 11 6 0 10 -2 10 -4z m383
-26 c-3 -11 -9 -23 -14 -26 -10 -6 -12 39 -3 49 12 12 22 -3 17 -23z m-779
-99 c-10 -23 -23 -41 -29 -41 -5 0 -16 -9 -23 -21 -7 -12 -16 -19 -18 -16 -3
3 2 17 11 31 11 16 15 35 11 51 -5 18 -3 23 7 20 7 -3 21 1 32 9 28 20 30 13
9 -33z m126 25 c0 -3 -4 -8 -10 -11 -5 -3 -10 -1 -10 4 0 6 5 11 10 11 6 0 10
-2 10 -4z m-20 -35 c0 -3 -9 -12 -20 -18 -23 -15 -38 1 -20 22 11 13 40 10 40
-4z m-97 -62 c-9 -9 -12 -7 -10 9 1 14 5 18 11 12 7 -7 6 -14 -1 -21z m-158
-18 c-7 -23 -25 -29 -25 -8 0 14 21 39 28 33 2 -3 1 -14 -3 -25z m345 -70 c0
-6 -4 -13 -10 -16 -5 -3 -10 1 -10 9 0 9 5 16 10 16 6 0 10 -4 10 -9z m500
-567 c0 -11 -5 -14 -16 -10 -9 3 -18 6 -20 6 -3 0 -2 5 1 10 10 16 35 12 35
-6z m-538 -136 c3 -20 -3 -71 -18 -148 -2 -14 -7 -56 -11 -93 -5 -57 -8 -67
-22 -61 -9 3 -38 9 -65 12 -36 3 -52 1 -60 -10 -6 -8 -23 -22 -37 -32 l-27
-17 -57 61 c-32 33 -66 60 -77 60 -19 0 -125 96 -116 105 3 3 34 10 69 16 35
6 68 14 73 19 5 5 22 6 37 3 18 -3 45 2 74 16 25 12 59 23 75 24 16 2 38 11
48 20 10 10 22 17 26 17 4 0 14 7 22 15 24 24 62 19 66 -7z m430 -65 c-5 -27
-5 -27 -14 -4 -8 24 -2 45 11 36 5 -2 6 -17 3 -32z m121 -170 c26 -18 47 -37
47 -42 0 -10 -92 -24 -112 -16 -9 4 -19 -4 -26 -20 -6 -14 -18 -25 -25 -25 -8
0 -26 -10 -41 -21 -15 -12 -30 -19 -33 -16 -9 9 19 150 35 175 8 13 24 22 38
22 13 0 24 4 24 10 0 5 10 -1 23 -13 12 -12 44 -37 70 -54z m-1028 18 c10 -18
-17 -23 -33 -7 -15 15 -15 16 5 16 12 0 24 -4 28 -9z m50 -41 c10 -11 14 -20
8 -20 -5 0 -18 9 -28 20 -10 11 -14 20 -8 20 5 0 18 -9 28 -20z m405 -85 c14
-17 11 -18 -50 -30 -19 -4 -52 -10 -72 -15 -26 -5 -43 -3 -55 6 -17 11 -15 13
12 24 74 29 148 35 165 15z"/>
<path d="M1073 236 c-15 -13 -25 -27 -22 -30 7 -8 69 23 69 34 0 20 -20 19
-47 -4z"/>
<path d="M1495 1990 c-1 -3 -3 -20 -3 -38 l-1 -34 47 7 c27 3 60 2 76 -5 16
-6 31 -9 33 -6 8 8 -26 76 -39 77 -49 4 -110 3 -113 -1z"/>
<path d="M734 1964 c-21 -15 -40 -27 -41 -28 -7 -6 24 -56 34 -56 7 0 10 -6 7
-14 -9 -22 39 -27 108 -10 35 8 74 20 87 27 24 12 23 12 -15 17 -24 3 -38 10
-36 18 1 6 -3 12 -9 12 -6 0 -22 14 -36 30 -30 37 -49 38 -99 4z"/>
<path d="M1280 1930 c0 -5 7 -10 15 -10 8 0 15 5 15 10 0 6 -7 10 -15 10 -8 0
-15 -4 -15 -10z"/>
<path d="M1232 1883 c-26 -5 -25 -26 2 -31 18 -4 46 14 46 29 0 9 -8 10 -48 2z"/>
<path d="M1115 1859 c-4 -6 -5 -12 -2 -15 7 -7 37 7 37 17 0 13 -27 11 -35 -2z"/>
<path d="M1672 1849 c4 -30 33 -48 50 -31 17 17 -1 46 -31 50 -18 3 -22 -1
-19 -19z"/>
<path d="M1850 1790 c0 -5 7 -10 15 -10 8 0 15 5 15 10 0 6 -7 10 -15 10 -8 0
-15 -4 -15 -10z"/>
<path d="M2545 1720 c-4 -6 -11 -8 -16 -5 -5 4 -9 1 -9 -4 0 -17 27 -13 34 4
6 17 0 20 -9 5z"/>
<path d="M2167 1582 c-26 -27 -36 -49 -17 -37 10 6 53 65 48 65 -3 0 -16 -13
-31 -28z"/>
<path d="M1265 1370 c-3 -6 1 -7 9 -4 18 7 21 14 7 14 -6 0 -13 -4 -16 -10z"/>
<path d="M2520 335 c7 -8 19 -15 26 -15 8 0 14 7 14 15 0 10 -10 15 -26 15
-22 0 -25 -2 -14 -15z"/>
<path d="M2527 153 c-4 -3 -7 -13 -7 -22 0 -8 -11 -31 -24 -50 -13 -20 -27
-46 -31 -58 -6 -22 -4 -23 44 -23 l51 0 0 80 c0 60 -3 80 -13 80 -8 0 -17 -3
-20 -7z"/>
<path d="M2290 93 c-14 -7 -34 -13 -44 -13 -10 0 -41 -17 -68 -37 l-49 -38
127 -3 c100 -2 131 1 150 13 24 16 23 45 -2 45 -8 0 -14 9 -14 19 0 15 -9 20
-38 23 -21 2 -49 -2 -62 -9z"/>
</g>
</svg>
